<svg width="17" height="19" viewBox="0 0 17 19" fill="none" xmlns="http://www.w3.org/2000/svg">
  <path d="M6.88084 8.80723C9.08631 8.80723 10.8809 6.92988 10.8809 4.62174C10.8808 2.31401 9.08631 0.436279 6.88084 0.436279C4.67538 0.436279 2.88083 2.31401 2.88083 4.62177C2.88083 6.92988 4.67535 8.80723 6.88084 8.80723ZM6.88084 2.11046C8.20428 2.11046 9.28084 3.23735 9.28084 4.62174C9.28084 6.00654 8.20428 7.13302 6.88084 7.13302C5.55741 7.13302 4.48085 6.00654 4.48085 4.62174C4.48082 3.23735 5.55741 2.11046 6.88084 2.11046ZM0.480835 14.6669C0.480835 12.3592 2.27536 10.4814 4.48085 10.4814H9.28084C10.5695 10.4814 11.7867 11.1374 12.5371 12.2357C12.7941 12.6117 12.7109 13.1345 12.3515 13.4035C11.9914 13.672 11.4918 13.5854 11.2355 13.2093C10.7847 12.5496 10.0543 12.1555 9.28084 12.1555H4.48082C3.15738 12.1555 2.08082 13.2824 2.08082 14.6668C2.08082 15.1287 2.43982 15.5039 2.88083 15.5039H6.88084C7.32263 15.5039 7.68085 15.8792 7.68085 16.341C7.68085 16.8037 7.32266 17.1781 6.88084 17.1781H2.88083C1.55739 17.1782 0.480835 16.0517 0.480835 14.6669ZM16.2457 13.2375C16.5586 13.5642 16.5593 14.0939 16.2473 14.4213L12.6535 18.1902C12.5035 18.3476 12.3 18.4363 12.0874 18.4363H12.087C11.8749 18.4363 11.6714 18.348 11.5214 18.191L9.5171 16.0938C9.20461 15.7668 9.20461 15.2371 9.5171 14.9101C9.8296 14.5831 10.3359 14.5831 10.6484 14.9101L12.0862 16.4146L15.1143 13.2387C15.4258 12.9118 15.9328 12.9106 16.2457 13.2375Z" fill="#3A3A3A"/>
</svg>
